<svg version="1.1" id="Layer_1" xmlns="http://www.w3.org/2000/svg" xmlns:xlink="http://www.w3.org/1999/xlink" x="0px" y="0px"
	 width="100%" viewBox="0 0 130 129" enable-background="new 0 0 130 129" xml:space="preserve">
<path fill="#FEFEFE" opacity="1.000000" stroke="none" 
	d="
M71.000000,130.000000 
	C47.333332,130.000000 24.166666,130.000000 1.000000,130.000000 
	C1.000000,87.000000 1.000000,44.000000 1.000000,1.000000 
	C44.333332,1.000000 87.666664,1.000000 131.000000,1.000000 
	C131.000000,44.000000 131.000000,87.000000 131.000000,130.000000 
	C111.166664,130.000000 91.333336,130.000000 71.000000,130.000000 
M106.163300,54.814251 
	C105.860664,56.281727 105.300789,57.751667 105.314789,59.216114 
	C105.336617,61.498280 105.747978,63.776714 105.133385,66.051682 
	C98.734962,65.344849 93.390770,67.751228 90.306992,73.097107 
	C87.221634,78.445709 84.689560,84.323082 83.119576,90.285843 
	C80.907539,98.687141 79.446320,107.183975 71.450005,112.448959 
	C71.042206,112.717461 71.049660,113.616653 70.542015,115.270355 
	C74.617859,115.600914 78.277069,115.897682 82.616394,116.648148 
	C104.283470,118.383049 118.829987,108.372437 123.476822,88.528839 
	C125.705116,79.013260 121.280746,69.887077 112.992615,66.079071 
	C112.659622,63.350780 112.187462,60.630581 112.028290,57.892185 
	C111.821716,54.338413 110.276321,53.201096 106.163300,54.814251 
M33.199959,44.675259 
	C34.717312,46.774719 36.130142,47.401909 38.398094,45.259743 
	C40.236309,43.523483 42.705574,42.455326 45.109818,41.747532 
	C48.480621,48.468140 54.289429,51.456310 61.404652,50.892864 
	C67.608559,50.401581 73.688469,48.504547 79.870010,47.523891 
	C85.668648,46.603989 91.515236,45.857338 97.369316,45.489281 
	C99.292168,45.368389 101.304466,46.670010 103.275856,47.321133 
	C103.762589,46.964428 104.249313,46.607723 104.736046,46.251015 
	C103.019836,42.166454 101.303619,38.081890 99.287666,33.309177 
	C90.673492,16.841444 79.420670,10.657866 61.155895,12.951013 
	C48.168667,14.581563 39.737484,24.320744 41.153900,34.324768 
	C38.810211,36.121819 36.271732,37.725750 34.211521,39.803837 
	C33.290733,40.732620 33.330303,42.613503 33.199959,44.675259 
M61.607983,112.544075 
	C60.767570,111.320526 60.189835,109.648117 59.030449,108.969627 
	C56.817043,107.674309 54.272160,106.945419 52.176601,105.313232 
	C55.642902,100.847656 56.627300,95.383949 54.375256,90.712029 
	C51.628803,85.014420 47.401871,79.951080 43.369701,74.974403 
	C39.130192,69.741829 34.364178,64.935829 29.886715,59.138329 
	C29.416353,56.644760 28.945992,54.151196 28.475628,51.657627 
	C27.873022,51.410793 27.270416,51.163960 26.667810,50.917126 
	C23.614576,55.036888 20.256376,58.967426 17.562029,63.309860 
	C7.085561,80.194603 9.272960,97.134300 23.588682,109.532089 
	C28.845743,114.084839 34.817719,117.129776 42.800728,114.178604 
	C44.214462,113.472610 45.628201,112.766609 47.805412,111.981064 
	C50.716515,113.092216 53.663174,114.119835 56.528149,115.339363 
	C59.104839,116.436172 60.713440,116.017128 61.607983,112.544075 
z"/>
<path fill="#8AC44D" opacity="1.000000" stroke="none" 
	d="
M99.587410,33.997326 
	C101.303619,38.081890 103.019836,42.166454 104.736046,46.251015 
	C104.249313,46.607723 103.762589,46.964428 103.275856,47.321133 
	C101.304466,46.670010 99.292168,45.368389 97.369316,45.489281 
	C91.515236,45.857338 85.668648,46.603989 79.870010,47.523891 
	C73.688469,48.504547 67.608559,50.401581 61.404652,50.892864 
	C54.289429,51.456310 48.480621,48.468140 45.089592,41.075363 
	C51.023628,37.583527 56.977890,34.763859 63.392052,31.969612 
	C67.042770,31.995031 70.233582,31.995031 73.424400,31.995031 
	C73.516296,31.366385 73.608200,30.737736 73.700104,30.109089 
	C70.865059,29.406981 68.040955,28.180258 65.192513,28.120899 
	C60.454929,28.022171 55.701740,28.672419 51.091171,28.682713 
	C63.050972,20.049124 81.348839,20.370024 92.819870,29.064520 
	C95.044167,30.750427 97.329979,32.355152 99.587410,33.997326 
z"/>
<path fill="#8BC54D" opacity="1.000000" stroke="none" 
	d="
M113.001801,66.921890 
	C121.280746,69.887077 125.705116,79.013260 123.476822,88.528839 
	C118.829987,108.372437 104.283470,118.383049 82.422012,116.102509 
	C85.117195,111.250488 88.644203,107.225891 90.708939,102.554916 
	C92.602745,98.270653 92.696655,93.226990 93.980721,88.628822 
	C96.120842,80.965187 98.578384,73.390289 106.388351,69.320724 
	C107.755753,79.159775 105.022781,87.641243 98.485031,95.976692 
	C104.340317,94.728043 106.338463,91.090935 108.401375,86.991798 
	C110.094810,80.118500 111.548302,73.520195 113.001801,66.921890 
z"/>
<path fill="#8AC44D" opacity="1.000000" stroke="none" 
	d="
M29.828232,59.943432 
	C34.364178,64.935829 39.130192,69.741829 43.369701,74.974403 
	C47.401871,79.951080 51.628803,85.014420 54.375256,90.712029 
	C56.627300,95.383949 55.642902,100.847656 51.678421,105.584625 
	C47.468800,103.790070 43.757359,101.724129 39.900429,99.416435 
	C38.907940,98.441612 38.060936,97.708542 37.043541,96.719994 
	C36.256744,95.956566 35.640339,95.448624 35.010048,94.966827 
	C34.996166,94.992966 35.055336,94.994843 34.951496,94.727753 
	C34.571762,94.195694 34.295868,93.930717 33.992409,93.319801 
	C32.718575,90.425102 31.472303,87.876335 30.226036,85.327576 
	C29.123476,87.297249 28.467224,89.419426 29.237457,90.645370 
	C32.514359,95.861076 36.012123,100.971588 39.843002,105.791664 
	C41.789833,108.241203 44.614243,109.993256 47.041935,112.060616 
	C45.628201,112.766609 44.214462,113.472610 42.077438,114.134308 
	C20.017801,106.475388 13.843562,77.469986 29.828232,59.943432 
z"/>
<path fill="#089C06" opacity="1.000000" stroke="none" 
	d="
M29.857473,59.540878 
	C13.843562,77.469986 20.017801,106.475388 41.730667,114.083748 
	C34.817719,117.129776 28.845743,114.084839 23.588682,109.532089 
	C9.272960,97.134300 7.085561,80.194603 17.562029,63.309860 
	C20.256376,58.967426 23.614576,55.036888 26.667810,50.917126 
	C27.270416,51.163960 27.873022,51.410793 28.475628,51.657627 
	C28.945992,54.151196 29.416353,56.644760 29.857473,59.540878 
z"/>
<path fill="#069B05" opacity="1.000000" stroke="none" 
	d="
M106.120438,69.025040 
	C98.578384,73.390289 96.120842,80.965187 93.980721,88.628822 
	C92.696655,93.226990 92.602745,98.270653 90.708939,102.554916 
	C88.644203,107.225891 85.117195,111.250488 82.081955,115.875656 
	C78.277069,115.897682 74.617859,115.600914 70.542015,115.270355 
	C71.049660,113.616653 71.042206,112.717461 71.450005,112.448959 
	C79.446320,107.183975 80.907539,98.687141 83.119576,90.285843 
	C84.689560,84.323082 87.221634,78.445709 90.306992,73.097107 
	C93.390770,67.751228 98.734962,65.344849 105.669518,66.418701 
	C106.177246,67.532158 106.148842,68.278595 106.120438,69.025040 
z"/>
<path fill="#099C07" opacity="1.000000" stroke="none" 
	d="
M99.437538,33.653252 
	C97.329979,32.355152 95.044167,30.750427 92.819870,29.064520 
	C81.348839,20.370024 63.050972,20.049124 50.781616,28.808449 
	C47.399609,30.727146 44.463203,32.195576 41.526794,33.664001 
	C39.737484,24.320744 48.168667,14.581563 61.155895,12.951013 
	C79.420670,10.657866 90.673492,16.841444 99.437538,33.653252 
z"/>
<path fill="#AED682" opacity="1.000000" stroke="none" 
	d="
M47.423676,112.020844 
	C44.614243,109.993256 41.789833,108.241203 39.843002,105.791664 
	C36.012123,100.971588 32.514359,95.861076 29.237457,90.645370 
	C28.467224,89.419426 29.123476,87.297249 30.226036,85.327576 
	C31.472303,87.876335 32.718575,90.425102 34.070824,93.611069 
	C34.469650,94.497139 34.762493,94.745987 35.055336,94.994843 
	C35.055336,94.994843 34.996166,94.992966 35.043003,95.311470 
	C35.797871,96.078476 36.505901,96.526970 37.213928,96.975471 
	C38.060936,97.708542 38.907940,98.441612 39.898800,99.801804 
	C45.406704,107.382751 53.013218,110.582710 61.087097,113.000313 
	C60.713440,116.017128 59.104839,116.436172 56.528149,115.339363 
	C53.663174,114.119835 50.716515,113.092216 47.423676,112.020844 
z"/>
<path fill="#ACD580" opacity="1.000000" stroke="none" 
	d="
M41.340347,33.994385 
	C44.463203,32.195576 47.399609,30.727146 50.645569,29.132982 
	C55.701740,28.672419 60.454929,28.022171 65.192513,28.120899 
	C68.040955,28.180258 70.865059,29.406981 73.700104,30.109089 
	C73.608200,30.737736 73.516296,31.366385 73.424400,31.995031 
	C70.233582,31.995031 67.042770,31.995031 63.136719,31.684505 
	C59.728485,31.682281 56.698444,31.302505 54.404774,32.426033 
	C47.100506,36.003952 40.070190,40.141159 32.934036,44.062294 
	C33.330303,42.613503 33.290733,40.732620 34.211521,39.803837 
	C36.271732,37.725750 38.810211,36.121819 41.340347,33.994385 
z"/>
<path fill="#AED682" opacity="1.000000" stroke="none" 
	d="
M106.388351,69.320724 
	C106.148842,68.278595 106.177246,67.532158 106.099960,66.421219 
	C105.747978,63.776714 105.336617,61.498280 105.314789,59.216114 
	C105.300789,57.751667 105.860664,56.281727 106.689377,55.110165 
	C109.720131,63.301861 111.027206,71.268265 109.119293,79.539391 
	C108.539024,82.054993 108.466507,84.687714 108.161430,87.266792 
	C106.338463,91.090935 104.340317,94.728043 98.485031,95.976692 
	C105.022781,87.641243 107.755753,79.159775 106.388351,69.320724 
z"/>
<path fill="#C2DFA3" opacity="1.000000" stroke="none" 
	d="
M108.401375,86.991798 
	C108.466507,84.687714 108.539024,82.054993 109.119293,79.539391 
	C111.027206,71.268265 109.720131,63.301861 107.090202,55.007706 
	C110.276321,53.201096 111.821716,54.338413 112.028290,57.892185 
	C112.187462,60.630581 112.659622,63.350780 112.997208,66.500481 
	C111.548302,73.520195 110.094810,80.118500 108.401375,86.991798 
z"/>
<path fill="#C2DFA3" opacity="1.000000" stroke="none" 
	d="
M33.066998,44.368774 
	C40.070190,40.141159 47.100506,36.003952 54.404774,32.426033 
	C56.698444,31.302505 59.728485,31.682281 62.676819,31.659086 
	C56.977890,34.763859 51.023628,37.583527 44.982155,40.747017 
	C42.705574,42.455326 40.236309,43.523483 38.398094,45.259743 
	C36.130142,47.401909 34.717312,46.774719 33.066998,44.368774 
z"/>
<path fill="#C3DFA4" opacity="1.000000" stroke="none" 
	d="
M61.347542,112.772194 
	C53.013218,110.582710 45.406704,107.382751 40.044289,100.043549 
	C43.757359,101.724129 47.468800,103.790070 51.522552,105.918716 
	C54.272160,106.945419 56.817043,107.674309 59.030449,108.969627 
	C60.189835,109.648117 60.767570,111.320526 61.347542,112.772194 
z"/>
<path fill="#C3DFA4" opacity="1.000000" stroke="none" 
	d="
M37.043541,96.719994 
	C36.505901,96.526970 35.797871,96.078476 35.056885,95.285324 
	C35.640339,95.448624 36.256744,95.956566 37.043541,96.719994 
z"/>
<path fill="#C3DFA4" opacity="1.000000" stroke="none" 
	d="
M34.951496,94.727753 
	C34.762493,94.745987 34.469650,94.497139 34.098392,93.957016 
	C34.295868,93.930717 34.571762,94.195694 34.951496,94.727753 
z"/>
</svg>